<?xml version="1.0" encoding="UTF-8"?>
<svg xmlns="http://www.w3.org/2000/svg" viewBox="0 0 1200 1106.76">
  <defs>
    <style>
      .cls-1 {
        fill: #7c41cf;
      }

      .cls-1, .cls-2, .cls-3, .cls-4, .cls-5, .cls-6, .cls-7, .cls-8, .cls-9 {
        opacity: .8;
      }

      .cls-2 {
        fill: #6841a7;
      }

      .cls-10 {
        fill: #ff8a08;
      }

      .cls-11, .cls-12 {
        fill: #0058a1;
      }

      .cls-3 {
        fill: #ffef13;
      }

      .cls-13 {
        fill: #fff;
      }

      .cls-4, .cls-14 {
        fill: #008fce;
      }

      .cls-5, .cls-15 {
        fill: #00c06e;
      }

      .cls-6 {
        fill: #f80;
      }

      .cls-16 {
        fill: none;
      }

      .cls-16, .cls-12 {
        stroke: #0058a1;
        stroke-miterlimit: 10;
      }

      .cls-17, .cls-7 {
        fill: #75addc;
      }

      .cls-17, .cls-14 {
        opacity: .5;
      }

      .cls-8 {
        fill: #ff2b33;
      }

      .cls-9 {
        fill: #7c55a7;
      }

      .cls-18 {
        fill: #0b6;
      }

      .cls-19 {
        fill: #ffed1f;
      }
    </style>
  </defs>
  <g id="Layer_7" data-name="Layer 7">
    <circle class="cls-8" cx="159" cy="709.84" r="50.65"/>
    <circle class="cls-8" cx="542.67" cy="1016.53" r="40.97"/>
    <ellipse class="cls-8" cx="539.24" cy="884.2" rx="84.41" ry="81.43"/>
    <ellipse class="cls-8" cx="1042.86" cy="792.16" rx="63.56" ry="58.1"/>
    <circle class="cls-8" cx="963.48" cy="341.77" r="49.72"/>
    <ellipse class="cls-6" cx="931.13" cy="506.16" rx="106.76" ry="100.8"/>
    <ellipse class="cls-6" cx="367.08" cy="274.2" rx="116.22" ry="104.25"/>
    <circle class="cls-3" cx="419.93" cy="97.41" r="59.34"/>
    <circle class="cls-3" cx="1027.05" cy="566.16" r="86.15"/>
    <circle class="cls-3" cx="277.76" cy="355.99" r="59.01"/>
    <circle class="cls-3" cx="132.11" cy="415.62" r="64.06"/>
    <ellipse class="cls-3" cx="250.86" cy="868.81" rx="71.01" ry="66.04"/>
    <circle class="cls-5" cx="282.8" cy="181.86" r="45.46"/>
    <ellipse class="cls-5" cx="613.3" cy="161.22" rx="108.7" ry="101.3"/>
    <ellipse class="cls-5" cx="419.13" cy="884.2" rx="97.32" ry="88.88"/>
    <ellipse class="cls-5" cx="166.69" cy="570.46" rx="84.17" ry="81.85"/>
    <circle class="cls-7" cx="178.2" cy="281.79" r="46.09"/>
    <ellipse class="cls-17" cx="507.17" cy="198.96" rx="60.99" ry="56.36"/>
    <ellipse class="cls-7" cx="741.91" cy="844.19" rx="80.16" ry="83.7"/>
    <ellipse class="cls-14" cx="732.12" cy="228.61" rx="83.92" ry="76.61"/>
    <circle class="cls-4" cx="738.1" cy="94.31" r="48.29"/>
    <ellipse class="cls-4" cx="870.34" cy="328.83" rx="83.95" ry="86.17"/>
    <ellipse class="cls-4" cx="676.34" cy="910.52" rx="52.69" ry="51.14"/>
    <ellipse class="cls-15" cx="343.05" cy="479.28" rx="60.25" ry="64.28"/>
    <ellipse class="cls-9" cx="884.36" cy="192.01" rx="64.15" ry="67.53"/>
    <ellipse class="cls-1" cx="871.57" cy="921.94" rx="63.08" ry="57.6"/>
    <ellipse class="cls-2" cx="247.88" cy="506.16" rx="88.88" ry="85.49"/>
    <ellipse class="cls-6" cx="584.86" cy="873.27" rx="46.86" ry="48.24"/>
  </g>
  <g id="Layer_8" data-name="Layer 8">
    <path class="cls-13" d="M184.82,612.09c16.22,87.06,32.44,174.12,48.66,261.19,124.39-9.14,257.16-12.81,399.23-12.25,126.86.5,247.94,3.97,360.5,12.25,11.28-89.83,25.56-170.96,37.85-263.02l-150.36-15.17-1.6-230.33,24.73-8.39.99-28.49c-20.46-11.73-49.27-27.34-88.78-47.82-31.06-16.1-54.19-28.62-94.89-47.67-23.94-11.2-52.96-27.82-95.05-50.54h-35.32c-21.91,11.36-53.14,27.23-91.16,45.46-48.25,23.14-68.57,31.43-108,51.09-23.45,11.69-55.18,28.16-92.35,49.47.58,9.37,1.15,18.74,1.73,28.11l27.09,4.71c.19.06.33.24.33.45l-.16,235.05c-47.82,5.3-90.93,7.59-143.45,15.89Z"/>
  </g>
  <g id="Layer_4" data-name="Layer 4">
    <circle class="cls-10" cx="550.78" cy="425.86" r="29.49"/>
    <path class="cls-10" d="M478.28,438.79c-5.18-.74-10.16,1.69-12.41,5.96-2.64,4.98-.27,10.05,0,10.6,5.92,6.39,13.47,13.59,22.84,20.68,8.32,6.29,16.3,11.15,23.34,14.9.1,15.26-.55,32.26-2.48,50.65-2,19.03-5.02,36.32-8.44,51.64h29.3l9.43-39.84h13.41l7.37,39.06,30.54-.54c-2.67-18.42-5.68-39.29-7.61-59.26-1.36-14.08-2.44-27.83-3.28-41.21,7.11-4.46,14.53-9.4,22.15-14.9,7.66-5.52,14.73-11.02,21.23-16.39,3.35-4.6,3.19-10.66,0-14.4-3.95-4.63-12.06-5.13-17.26,0-7.51,3.95-15.54,7.88-24.07,11.71-6.2,2.78-12.25,5.33-18.13,7.65-4.54,1.29-11.01,2.59-18.81,2.48-6.91-.1-12.7-1.28-16.94-2.48-7.15-2.04-15.67-5.1-24.83-9.75-10.57-5.38-18.99-11.35-25.32-16.56Z"/>
    <ellipse class="cls-18" cx="661.76" cy="425.86" rx="28.06" ry="29.54"/>
    <path class="cls-18" d="M631.71,464.61l-18.87,16.88,16.39,12.91c.38,12.48.3,25.93-.5,40.22-1.13,20.36-3.84,40.98-6.79,57.6,10.43-.17,20.03-.49,29.89-.02l9.92-38.83h7.7l11.92,39.84h27.31c-2.74-16.17-5.04-33.94-6.46-53.13-1.29-17.53-1.69-33.98-1.49-49.16,7.6-4.08,16.27-9.42,25.32-16.39,9.55-7.34,17.26-14.75,23.34-21.35,4.78-3.37,5.81-10.04,2.48-14.53-3.14-4.23-9.29-5.36-13.9-2.35-6.97,5.31-15.56,11.04-25.82,16.39-7.99,4.16-15.55,7.33-22.34,9.77-6.88,2.51-17.33,5.41-30.3,5.7-11.57.25-21.14-1.67-27.79-3.55Z"/>
    <path class="cls-18" d="M586.53,448.23c2.88,2.17,10.25-2.29,9.93-4.97-.28-2.39-6.96-5.45-9.93-2.48-1.97,1.97-1.82,6.08,0,7.45Z"/>
    <path class="cls-11" d="M554.18,160.68c1.93,0,1.93-3,0-3s-1.93,3,0,3h0Z"/>
    <path class="cls-16" d="M464.37,369.76c.25.44.37.69.35.71-.02,0-.06-.04-.09-.06-.1-.09-.19-.31-.26-.65Z"/>
    <path class="cls-16" d="M467.6,293.3l-108.25,19.62c16.59-9.1,42.88-23.02,76.22-38.48,28.63-13.27,41.72-18.07,66.79-29.55,21.64-9.91,53.25-25.28,91.12-47.17h27.06c31.18,18.7,57.43,32.51,75.72,41.71,28.38,14.27,43.17,20.22,78.96,37.49,30.67,14.8,55.29,27.56,71.25,36-34.76-6.21-69.52-12.42-104.28-18.62l-274.59-1Z"/>
    <path class="cls-16" d="M887.68,335.01v11.92l-145.73-25.57-279.56-.75-145,26.32v-11.92c8.74-3.23,22.14-7.86,38.85-12.26,18.69-4.92,31.09-6.81,56.49-11.57,12.78-2.39,31.19-5.95,53.63-10.68,92.44.09,184.88.17,277.32.25,8.9,2.4,22.97,6.01,40.47,9.69,27.07,5.68,38.49,6.53,60.83,11.91,10.08,2.43,24.89,6.39,42.7,12.66Z"/>
    <path class="cls-12" d="M778.73,270.56c-26.14-12.68-46.1-21.22-81.47-39.43-31.74-16.35-57.11-30.8-73.61-40.47h-32.86c-15.68,8.99-39.64,22.32-69.56,37.24-36.82,18.36-60.6,28.14-86.4,39.72-29.77,13.37-72.36,33.69-123.89,62.57v19.86c4.8.16,10.46.81,16.64,2.48,2.21.6,4.28,1.28,6.2,1.99,1.16,1.82,2.32,3.64,3.48,5.46l-.5,236.36h4.47l1-248.77,8.93.49.5,31.78,18.37-22.34c-2.98.99-5.96,1.98-8.94,2.98-1.65,1.16-3.31,2.32-4.96,3.47v-14.4l102.29-21.35v21.85c-1.94-.9-4.54-1.87-7.7-2.48-3.67-.71-6.85-.69-9.18-.5,6.52,3.54,10.9,7.52,13.65,10.43,4.41,4.67,8.06,10.3,9.18,12.26-1.29-5.63.26-44.04.26-44.04l18.62.5v104.27l12.41,7.72v-36.52c2.32-7.09,6.75-17.81,15.39-28.8,9-11.45,18.82-18.43,25.33-22.34,44.85-.5,89.71-1,134.56-1.49,6.88,3.43,17.03,9.52,26.82,19.86,10.76,11.37,16.48,22.98,19.44,30.4-.02,12.67-.05,25.33-.08,37.99,0,0,9.44-1.27,9.44-4.04v-107.05c6.62.33,13.24.66,19.86.99.33,15.56.66,31.12.99,46.67,1.5-3.55,3.95-8.29,7.95-13.15,4.75-5.79,9.81-9.47,13.4-11.67h-6.45c-2.83.82-5.66,1.65-8.49,2.48v-20.86c15.57,2.29,31.84,5.07,48.71,8.45,16.86,3.37,32.92,7.05,48.16,10.92-.16,4.47-.33,8.94-.49,13.41-.98-.83-2.55-1.96-4.72-2.73-3.08-1.11-5.77-.94-7.2-.75,3.14,2.72,6.69,6.24,10.18,10.68,2.54,3.23,4.58,6.35,6.21,9.18v-29.29l11.42,1.98v242.99h2.98v-233.06c2.36-2.35,6.12-5.56,11.42-8.19,5.51-2.74,10.53-3.78,13.9-4.22v-15.89c-47.81-29.41-87.76-50.07-115.66-63.6ZM435.57,274.44c28.63-13.27,41.72-18.07,66.79-29.55,21.64-9.91,53.25-25.28,91.12-47.17h27.06c31.18,18.7,57.43,32.51,75.72,41.71,28.38,14.27,43.17,20.22,78.96,37.49,30.67,14.8,55.29,27.56,71.25,36-34.76-6.21-69.52-12.42-104.28-18.62l-274.59-1-108.25,19.62c16.59-9.1,42.88-23.02,76.22-38.48ZM721.15,351.38l-9.95-7.5h-10.44l20.39,17.38v31.7c-4.09-9.25-13.42-26.93-32.57-41.71-14.02-10.82-27.86-15.89-36.8-18.37h-92.75s-.03,0-.03,0c-6.28,1.71-30.34,12.29-48.5,31.17-14.64,15.21-17.72,25.68-21.34,29.9,0,0-.01.01-.03.01-.7-.03.03-29.31.03-29.31l21.88-21.6-10.69-.5-10.19,8.19v-22.88h231v23.5ZM887.68,346.93l-145.73-25.57-279.56-.75-145,26.32v-11.92c8.74-3.23,22.14-7.86,38.85-12.26,18.69-4.92,31.09-6.81,56.49-11.57,12.78-2.39,31.19-5.95,53.63-10.68,92.44.09,184.88.17,277.32.25,8.9,2.4,22.97,6.01,40.47,9.69,27.07,5.68,38.49,6.53,60.83,11.91,10.08,2.43,24.89,6.39,42.7,12.66v11.92Z"/>
    <path class="cls-16" d="M846.47,312.92c-34.76-6.21-69.52-12.42-104.28-18.62l-274.59-1-108.25,19.62c16.59-9.1,42.88-23.02,76.22-38.48,28.63-13.27,41.72-18.07,66.79-29.55,21.64-9.91,53.25-25.28,91.12-47.17h27.06c31.18,18.7,57.43,32.51,75.72,41.71,28.38,14.27,43.17,20.22,78.96,37.49,30.67,14.8,55.29,27.56,71.25,36Z"/>
    <path class="cls-16" d="M887.68,335.01v11.92l-145.73-25.57-279.56-.75-145,26.32v-11.92c8.74-3.23,22.14-7.86,38.85-12.26,18.69-4.92,31.09-6.81,56.49-11.57,12.78-2.39,31.19-5.95,53.63-10.68,92.44.09,184.88.17,277.32.25,8.9,2.4,22.97,6.01,40.47,9.69,27.07,5.68,38.49,6.53,60.83,11.91,10.08,2.43,24.89,6.39,42.7,12.66Z"/>
    <polygon class="cls-12" points="356.13 536.12 356.13 596.2 360.6 596.11 360.6 536.12 356.13 536.12"/>
    <polygon class="cls-12" points="372.27 536.12 372.27 537.36 372.27 595.8 377.23 595.89 377.23 536.12 372.27 536.12"/>
    <polygon class="cls-12" points="387.91 536.12 387.91 595.89 391.63 595.87 391.63 536.12 387.91 536.12"/>
    <path class="cls-12" d="M423.41,377.22c21.74,3.11,33.38,22.95,35.01,25.82l.24,35.01h4.47v-44.94c-9.44-22.12-30.5-36.63-53.13-36.74-27.26-.14-52.17,20.66-57.6,49.9v120.17c5.87,1.4,13.68,2.15,21.35,2.48,9.2.39,19.63.43,28.8-.25v66.79h5.22v-67.54l13.16-1.48-.25,68.34h4.96v-69.34l14.15-1.49v70.36l4.64-.15.33-71.45,13.16-2.23v73.73l5.21-.16v-130.84l-5.21-4.31c-.08,17.8-.17,35.59-.25,53.38-13.75,2.81-29.22,5.23-46.18,6.71-15.23,1.33-29.37,1.7-42.21,1.49-.74-34.1-1.49-68.2-2.23-102.29,8.64-27.71,33.51-44.23,56.36-40.97ZM372.18,388.64c-4.89,4.84-8.28,9.68-10.59,13.57.18-2.89.81-7.35,2.98-12.33,2.15-4.94,4.97-8.41,6.95-10.51,1.09-.44,3.39-1.19,6.29-.82,2.2.28,3.85,1.09,4.8,1.65-3.13,2.05-6.76,4.81-10.43,8.44Z"/>
    <path class="cls-16" d="M382.61,380.2c-3.13,2.05-6.76,4.81-10.43,8.44-4.89,4.84-8.28,9.68-10.59,13.57.18-2.89.81-7.35,2.98-12.33,2.15-4.94,4.97-8.41,6.95-10.51,1.09-.44,3.39-1.19,6.29-.82,2.2.28,3.85,1.09,4.8,1.65Z"/>
    <polygon class="cls-12" points="853.85 535.74 853.85 595.83 849.38 595.74 849.38 535.74 853.85 535.74"/>
    <polygon class="cls-12" points="837.71 535.74 837.71 536.99 837.71 595.43 832.75 595.52 832.75 535.74 837.71 535.74"/>
    <polygon class="cls-12" points="822.07 535.74 822.07 595.52 818.35 595.5 818.35 535.74 822.07 535.74"/>
    <polygon class="cls-12" points="716.96 491.26 726.22 484.64 727.05 593.88 716.96 593.88 716.96 491.26"/>
    <path class="cls-12" d="M482.75,593.22s11.26.5,11.26,0v-103.78l-10.7-10.34-.56,114.12Z"/>
    <path class="cls-16" d="M382.61,380.2c-3.13,2.05-6.76,4.81-10.43,8.44-4.89,4.84-8.28,9.68-10.59,13.57.18-2.89.81-7.35,2.98-12.33,2.15-4.94,4.97-8.41,6.95-10.51,1.09-.44,3.39-1.19,6.29-.82,2.2.28,3.85,1.09,4.8,1.65Z"/>
    <path class="cls-12" d="M799.97,355.99c-22.63.11-43.69,14.62-53.13,36.74,0,14.98.54,25.28.57,36.29l3.94,2.98.21-29.34c1.63-2.87,13.27-22.71,35.01-25.82,22.85-3.26,47.72,13.26,56.36,40.97-.74,34.1-1.49,68.19-2.23,102.29-12.83.21-26.98-.16-42.21-1.49-16.96-1.48-32.43-3.9-46.18-6.7-.08-17.79-.17-35.59-.25-53.38l-5.21,4.31v130.83l5.21.17v-73.74l13.16,2.23.33,71.45,4.64.15v-70.35l14.15,1.49v69.34h4.96l-.24-68.35,13.16,1.49v67.53h5.21v-66.79c9.18.68,19.6.64,28.8.25,7.67-.33,15.48-1.08,21.35-2.48v-120.17c-5.43-29.24-30.34-50.04-57.6-49.9ZM842.91,405.36s-5.69-9.98-10.1-15.89c-1.71-2.29-4.4-5.46-8.44-8.77,1.16-.45,3.57-1.19,6.62-.83,3.32.4,5.61,1.9,6.62,2.65,2.85,3.66,4.06,6.94,4.63,9.27,1.51,6.08.66,13.57.66,13.57Z"/>
    <path class="cls-12" d="M167.93,625.99c128.85-20.04,273.67-20.55,437.05-21.85,162.77-1.29,310.07-.1,437.87,22.84-11.26,77.51-23.5,159.84-34.76,237.35-126.45-8.25-261.1-13.07-403.11-12.91-136.94.15-266.98,4.92-389.39,12.91"/>
  </g>
  <g id="Layer_2" data-name="Layer 2">
    <g>
      <path class="cls-19" d="M276.14,757.84l-29.88-124.02h38.16c8.46,47.34,11.34,68.04,12.78,87.66h.54c5.04-26.82,12.6-58.68,18.9-87.66h32.4c5.4,25.2,13.68,59.58,18,86.22h.54c3.06-25.74,11.34-67.14,14.4-86.22h34.92l-31.5,124.02h-37.08c-5.4-25.74-12.6-55.08-17.28-79.02h-.36c-4.32,23.4-12.06,55.08-17.46,79.02h-37.08Z"/>
      <path class="cls-19" d="M466.94,633.82v124.02h-36.54v-124.02h36.54Z"/>
      <path class="cls-19" d="M492.5,633.82h36.54v97.02h58.32l-3.96,27h-90.9v-124.02Z"/>
      <path class="cls-19" d="M608.06,660.82h-35.46v-27h106.92v27h-35.1v97.02h-36.36v-97.02Z"/>
      <path class="cls-19" d="M810.92,695.74c0,35.1-21.06,64.44-63.54,64.44s-61.92-29.16-61.92-64.26,22.14-64.44,63.72-64.44c39.06,0,61.74,27.18,61.74,64.26ZM722.9,695.38c0,22.68,7.56,38.52,25.56,38.52,18.9,0,25.2-16.74,25.2-37.8,0-22.68-6.66-38.34-25.56-38.34-17.64,0-25.2,14.58-25.2,37.62Z"/>
      <path class="cls-19" d="M830.9,757.84v-124.02h43.56c12.96,27.9,31.86,65.7,37.08,81h.72c-1.44-12.96-1.8-34.74-1.8-54.54v-26.46h33.12v124.02h-41.4c-10.44-22.5-32.94-68.94-38.88-85.32h-.36c1.08,11.7,1.26,35.64,1.26,57.42v27.9h-33.3Z"/>
    </g>
  </g>
  <g id="Layer_3" data-name="Layer 3">
    <g>
      <path class="cls-13" d="M400.9,815.68c-2.08,11.52-10.48,19.2-25.6,19.2-18.08,0-26.8-12.16-26.8-28.16s8.64-29.04,27.6-29.04c16.16,0,23.52,9.44,24.64,18.96h-16c-.8-3.92-3.04-7.6-9.04-7.6-7.84,0-10.56,7.44-10.56,17.12,0,8.72,2.24,17.36,10.72,17.36,6.48,0,8.24-4.72,8.96-7.84h16.08Z"/>
      <path class="cls-13" d="M462.82,806.24c0,15.6-9.36,28.64-28.24,28.64s-27.52-12.96-27.52-28.56,9.84-28.64,28.32-28.64c17.36,0,27.44,12.08,27.44,28.56ZM423.7,806.08c0,10.08,3.36,17.12,11.36,17.12,8.4,0,11.2-7.44,11.2-16.8,0-10.08-2.96-17.04-11.36-17.04-7.84,0-11.2,6.48-11.2,16.72Z"/>
      <path class="cls-13" d="M471.7,778.72h16.24v43.12h25.92l-1.76,12h-40.4v-55.12Z"/>
      <path class="cls-13" d="M520.1,778.72h16.24v43.12h25.92l-1.76,12h-40.4v-55.12Z"/>
      <path class="cls-13" d="M609.14,811.52h-25.12v10.32h28.08l-1.84,12h-41.76v-55.12h41.68v12h-26.16v8.88h25.12v11.92Z"/>
      <path class="cls-13" d="M670.18,815.68c-2.08,11.52-10.48,19.2-25.6,19.2-18.08,0-26.8-12.16-26.8-28.16s8.64-29.04,27.6-29.04c16.16,0,23.52,9.44,24.64,18.96h-16c-.8-3.92-3.04-7.6-9.04-7.6-7.84,0-10.56,7.44-10.56,17.12,0,8.72,2.24,17.36,10.72,17.36,6.48,0,8.24-4.72,8.96-7.84h16.08Z"/>
      <path class="cls-13" d="M690.1,790.72h-15.76v-12h47.52v12h-15.6v43.12h-16.16v-43.12Z"/>
      <path class="cls-13" d="M744.65,778.72v55.12h-16.24v-55.12h16.24Z"/>
      <path class="cls-13" d="M769.21,833.84l-18.88-55.12h17.2l6.8,23.68c2.16,7.36,3.36,12.48,4.64,18.64h.24c1.04-5.76,2.48-10.88,4.8-18.48l6.96-23.84h16.56l-19.28,55.12h-19.04Z"/>
      <path class="cls-13" d="M853.61,811.52h-25.12v10.32h28.08l-1.84,12h-41.76v-55.12h41.68v12h-26.16v8.88h25.12v11.92Z"/>
    </g>
  </g>
</svg>